<?xml version="1.0" encoding="utf-8"?>
<svg version="1.1" xmlns:xlink="http://www.w3.org/1999/xlink" width="22px" height="22px" xmlns="http://www.w3.org/2000/svg">
  <g transform="matrix(1 0 0 1 -742 -410 )">
    <path d="M 19.485714285714284 3.4326241134751774  L 22 3.4326241134751774  L 22 1.7163120567375887  L 18.734375 1.7163120567375887  L 15.399999999999999 1.6578014184397163  L 15.399999999999999 0  L 6.6 0  L 6.6 1.7163120567375887  L 0 1.7163120567375887  L 0 3.4326241134751774  L 2.5142857142857142 3.4326241134751774  L 2.5142857142857142 21.03945035460993  C 2.40625 21.510703964283806  2.7910052931141682 21.8927304964539  3.265625 21.843971631205672  L 18.734375 21.843971631205672  C 19.208994706885832 21.8927304964539  19.59375 21.510703964283806  19.485714285714284 21.03945035460993  L 19.485714285714284 3.4326241134751774  Z M 4.242857142857143 20  L 4.242857142857143 3.4326241134751774  L 17.757142857142856 3.4326241134751774  L 17.757142857142856 20  L 4.242857142857143 20  Z M 12.885714285714286 17.47517730496454  L 14.614285714285714 17.47517730496454  L 14.614285714285714 6.553191489361701  L 12.885714285714286 6.553191489361701  L 12.885714285714286 17.47517730496454  Z M 7.385714285714285 17.47517730496454  L 9.114285714285716 17.47517730496454  L 9.114285714285716 6.553191489361701  L 7.385714285714285 6.553191489361701  L 7.385714285714285 17.47517730496454  Z " fill-rule="nonzero" fill="#555555" stroke="none" transform="matrix(1 0 0 1 742 410 )" />
  </g>
</svg>