<?xml version="1.0" encoding="utf-8"?>
<svg version="1.1" xmlns:xlink="http://www.w3.org/1999/xlink" width="27px" height="26px" xmlns="http://www.w3.org/2000/svg">
  <g transform="matrix(1 0 0 1 -31 -8 )">
    <path d="M 23.537109375 25.701286764705884  L 25.25390625 23.95082720588235  L 22.001953125 20.63511029411765  C 23.49609375 18.732306985294116  24.3955078125 16.32169117647059  24.3955078125 13.693014705882351  C 24.3955078125 7.545496323529412  19.505859375 2.5599724264705883  13.4765625 2.5599724264705883  C 7.447265625 2.5599724264705883  2.5576171875 7.545496323529412  2.5576171875 13.693014705882351  C 2.5576171875 16.32169117647059  3.45703125 18.732306985294116  4.951171875 20.63511029411765  L 1.69921875 23.95082720588235  L 3.4160156249999996 25.701286764705884  L 6.66796875 22.385569852941178  C 8.537109375 23.909007352941178  10.9013671875 24.826056985294116  13.4765625 24.826056985294116  C 16.0517578125 24.826056985294116  18.418945312499993 23.909007352941178  20.28515625 22.385569852941178  L 23.537109375 25.701286764705884  Z M 0.3427734375 4.534466911764706  C 0.3427734375 5.2185202205882355  0.615234375 5.836856617647059  1.0546875 6.2849264705882355  L 1.8281249999999998 7.073529411764706  C 3.041015625 4.872012867647059  4.8251953125 3.049862132352941  6.978515625000001 1.8191636029411764  L 6.205078125 1.033547794117647  C 5.765625 0.5854779411764706  5.1591796875 0.3076746323529412  4.48828125 0.3076746323529412  C 3.8173828125 0.3076746323529412  3.2109375 0.5854779411764706  2.771484375 1.033547794117647  L 1.0546875 2.784007352941176  C 0.615234375 3.232077205882353  0.3427734375 3.8504136029411766  0.3427734375 4.534466911764706  Z M 25.1220703125 7.067555147058824  L 25.8955078125 6.278952205882352  C 26.3349609375 5.830882352941177  26.607421875 5.212545955882352  26.607421875 4.528492647058823  C 26.6044921875 3.8474264705882355  26.3349609375 3.2290900735294117  25.8955078125 2.7810202205882355  L 24.1787109375 1.0305606617647058  C 23.7392578125 0.5824908088235294  23.1328125 0.3046875  22.4619140625 0.3046875  C 21.7939453125 0.3046875  21.1845703125 0.5824908088235294  20.7451171875 1.0305606617647058  L 19.974609375 1.8191636029411764  C 22.130859375 3.049862132352941  23.9150390625 4.869025735294118  25.1220703125 7.067555147058824  Z M 13.4765625 3.7966452205882355  C 18.8291015625 3.7966452205882355  23.1826171875 8.235523897058824  23.1826171875 13.693014705882351  C 23.1826171875 19.150505514705884  18.8291015625 23.58938419117647  13.4765625 23.58938419117647  C 8.126953125 23.58938419117647  3.7705078125 19.150505514705884  3.7705078125 13.693014705882351  C 3.7705078125 8.235523897058824  8.1240234375 3.7966452205882355  13.4765625 3.7966452205882355  Z M 16.259765625 18.278262867647058  L 17.9736328125 16.53079044117647  L 14.689453125 13.182215073529411  L 14.689453125 6.272977941176471  L 12.263671875 6.272977941176471  L 12.263671875 14.206801470588236  L 16.259765625 18.278262867647058  Z " fill-rule="nonzero" fill="#060001" stroke="none" transform="matrix(1 0 0 1 31 8 )" />
  </g>
</svg>