<?xml version="1.0" encoding="utf-8"?>
<svg version="1.1" xmlns:xlink="http://www.w3.org/1999/xlink" width="11px" height="11px" xmlns="http://www.w3.org/2000/svg">
  <g transform="matrix(1 0 0 1 64 -124 )">
    <path d="M 9.945833336914063 9.304166663085937  L 6.141666663085938 5.5  L 9.945833336914063 1.6958333369140626  C 10.129166673828125 1.5125000000000002  10.129166673828125 1.2375000000000003  9.945833336914063 1.0541666630859376  C 9.7625 0.870833326171875  9.4875 0.8708333261718751  9.304166663085937 1.0541666630859376  L 5.5 4.858333336914062  L 1.6958333369140626 1.0541666630859374  C 1.5125000000000002 0.870833326171875  1.2375000000000003 0.870833326171875  1.0541666630859376 1.0541666630859374  C 0.870833326171875 1.2374999999999998  0.8708333261718751 1.5124999999999997  1.0541666630859376 1.6958333369140626  L 4.858333336914062 5.5  L 1.0541666630859374 9.304166663085937  C 0.870833326171875 9.4875  0.870833326171875 9.7625  1.0541666630859374 9.945833336914063  C 1.145833326171875 10.0375  1.2374999999999998 10.083333336914063  1.375 10.083333336914063  C 1.5125000000000002 10.083333336914063  1.6041666630859377 10.0375  1.6958333369140626 9.945833336914063  L 5.5 6.141666663085938  L 9.304166663085937 9.945833336914063  C 9.395833326171875 10.0375  9.533333326171876 10.083333336914063  9.625 10.083333336914063  C 9.716666673828124 10.083333336914063  9.854166663085937 10.0375  9.945833336914063 9.945833336914063  C 10.129166673828125 9.7625  10.129166673828125 9.4875  9.945833336914063 9.304166663085937  Z " fill-rule="nonzero" fill="#221e1f" stroke="none" transform="matrix(1 0 0 1 -64 124 )" />
  </g>
</svg>