<?xml version="1.0" encoding="utf-8"?>
<svg version="1.1" xmlns:xlink="http://www.w3.org/1999/xlink" width="201px" height="132px" xmlns="http://www.w3.org/2000/svg">
  <g transform="matrix(1 0 0 1 -80 -36 )">
    <path d="M 109.43281609195401 131.3895269873658  C 108.0169568933677 131.3895269873658  106.65945654504071 130.82535468953063  105.66065798212003 129.82183154533845  L 99.16474521072792 123  L 32.00472349936143 123  C 32.0038224947628 123.32591969052487  32.00292148976723 123.32592014881425  32.00202048470243 123.32592014881425  C 30.534551306165383 123.32592014881425  29.344932489810958 122.13630133245988  29.344932489810958 120.66883215392284  C 29.344932489810958 119.19629077461252  30.553510344827604 117.99041455938698  32.00472349936143 118  L 44.102807151979505 118  C 43.16911627302079 116.37240154142546  42.679539797402754 114.53640177331658  43 112.66832043422733  L 43 35.27752030651345  C 42.68660233419996 29.390688304013565  47.45965059065679 24.620033150566655  53.34648333344444 24.620033150566655  L 61.35772311621963 24.62004968071517  L 61.35772311621963 21.938951468710115  C 61.36060490172167 16.052069561131816  66.13367383615764 11.281336599178758  72.02055644909115 11.281336599178758  C 72.0268148607172 11.281336599178758  72.03307327112839 11.281342109118327  72.0393316730524 12  L 136.0434148148148 12  C 136.0514182078366 11.281335098316049  136.0594216186305 11.28132608296994  136.06742503196278 11.28132608296994  C 141.95345406481158 11.28132608296994  146.7250233716818 16.05289538984016  146.7250233716818 21.938924422688956  C 146.7250233716818 21.93893343948139  146.72502337167043 21.938942451917683  146 21.938951468710115  L 146 99.32975159642399  C 146.72502337164747 101.26908735632185  146.2073988505747 103.08581775223502  145.30305657726694 104  L 160.0609102171137 104  C 161.53626130268208 104.65184572158364  162.73140817369097 105.83626449553003  162.7314080459771 107.31953397190296  C 162.7314080459771 108.79207535121327  161.54417956577277 109.98722222222227  160.06359220945092 110  L 128.05082260536403 110  L 128.05082260536403 112.66832043422733  C 128.05082260536403 114.60778390804603  127.53332579821198 116.42438659003835  126.6289836526182 117.99041455938698  L 128.05886858237545 117.99041455938698  C 129.5261736909324 117.99041455938698  130.71863856960408 119.1749610472541  130.71863856960408 120.65823052362703  C 130.71863856960408 122.13077190293745  129.51008186462332 123.32591877394634  128.05886858237545 123  L 114.02400357598981 123  C 115.27340363898179 125.42274227131941  114.93574900645113 128.10075982339208  113.20497420178798 129.82183154533845  C 112.20617563886731 130.8253546895305  110.84867529054041 131.3895269873658  109.43281609195401 131.3895269873658  Z M 99.99973869731798 109.07202426564504  L 108.91800127713918 117.99028684546624  L 117.40127024265642 117.99041455938698  C 120.33588058748398 117.99041455938698  122.71544623243938 115.61621289910602  122 112.64175593869732  L 122 35.1521052362707  C 122.71544623243938 32.27087931034487  120.4104655172414 29.955426053639826  117.56678748403579 30  L 53.167813026819886 30  C 50.32400727969343 29.9554261813538  48.01902656449556 32.281607407407364  48 35.1521052362707  L 48 112.64150051085562  C 48.01902656449556 115.5947570881226  50.42004814814811 117.9902869731801  53.330648275862025 118  L 93.82668671775218 118  L 92.45542247765002 116.6164683269476  C 91.10222535332548 115.2704223751033  90.5729762510615 113.3030600160887  91.06819386973177 111.45976360153259  L 88.549803192848 108.9386909323116  C 85.32636274890035 111.33790099055318  81.41517457996144 112.63368827338468  77.39686931539472 112.63368827338468  C 67.08050117494906 112.63368827338468  58.717432406071566 104.2706195045073  58.717432406071566 93.95425136406163  C 58.717432406071566 89.01469685706127  60.67393560361029 84.2762324527207  64.15887241379312 80.77560191570888  C 67.66283196993993 77.25914688857233  72.4227269290368 75.2825692174224  77.38691755077821 75.2825692174224  C 87.70032324428996 75.2825692174224  96.06099047542705 83.6432364485596  96.06099047542705 93.95664214207125  C 96.06099047542705 97.99948496068282  94.74897406747027 101.93314332757166  92.32208914431669 105.16653282247762  L 94.84303397190297 107.6876054916986  C 96.68582594115264 107.18994175378066  98.65397982010768 107.71833136015312  99.99973869731798 109.07202426564504  Z M 16.0065124521073 43.294122669221  C 16.0065124521073 47.71416378226695  12.423361164131563 51.29731507024269  8.003320051085552 51.29731507024269  C 3.583278938039598 51.29731507024269  0.00012765006385961897 47.71416378226695  0.00012765006385961897 43.294122669221  C 0.00012765006385961897 38.87408155617493  3.583278938039598 35.29093026819919  8.003320051085552 35.29093026819919  C 12.423361164131563 35.29093026819919  16.0065124521073 38.87408155617493  16.0065124521073 43.294122669221  Z M 181.40560874840355 27.287737867177498  C 181.40560874840355 31.707778980223566  177.8224574604278 35.29093026819919  173.40241634738186 35.29093026819919  C 168.9823752343359 35.29093026819919  165.39922394636017 31.707778980223566  165.39922394636017 27.287737867177498  C 165.39922394636017 22.867696754131543  168.9823752343359 19.284545466155805  173.40241634738186 19.284545466155805  C 177.8224574604278 19.284545466155805  181.40560874840355 22.867696754131543  181.40560874840355 27.287737867177498  Z M 18.674072924648783 85.97777279693491  C 19.410343678160928 85.97777279693491  20.007916985951454 86.55120830140481  20.00791711366537 87.28492464878673  L 20.00791711366537 89.9793051085569  L 22.702297573435487 89.9793051085569  C 23.428564637826128 89.99377211182934  24.009721213913224 90.58673804505156  24.009577139208204 91.31314916985957  C 24.009577139208204 92.0494199233716  23.436013920817345 92.64699323116224  22.702297573435487 92.6469933588761  L 20.00791711366537 92.6469933588761  L 20.00791711366537 95.34150153256701  C 19.993381531097157 96.06771857666968  19.40043540793704 96.64879890773034  18.674072924648783 96.64865338441882  C 17.951216642930774 96.64865338441882  17.34308749322389 96.06435216184968  17.340228863346113 95.34150153256701  L 17.340228863346113 92.6469933588761  L 14.645848403575995 92.6469933588761  C 13.919631359473387 92.63245777630789  13.338551028412724 92.03951165314777  13.338696551724125 91.31314916985957  C 13.338696551724125 90.57687841634743  13.912132056194137 89.9793051085569  14.645848403575995 89.9793051085569  L 17.340228863346113 89.9793051085569  L 17.340228863346113 87.28492464878673  C 17.354764444934062 86.5587076543568  17.947710491028943 85.97762734318144  18.674072924648783 85.97777279693491  Z M 200.07955402298853 80.64226858237544  C 200.079699476742 79.91590614875565  199.49861916556665 79.32296010266077  198.77240217113672 79.30842452107277  L 196.0778939974457 79.30842452107277  L 196.0778939974457 76.6140440613027  C 196.07503536756792 75.89119343202003  195.48824470596514 75.30671874062352  194.76538842424725 75.30671874062352  C 194.03902594095894 75.30657321731212  193.4247413296946 75.88782701720015  193.41020574712638 76.6140440613027  L 193.41020574712638 79.30842452107277  L 190.71582541507019 79.30842452107277  C 189.992974735678 79.31128308081486  189.40849996668533 79.89807376322653  189.40849996668533 80.62093009477633  C 189.40849996668533 81.33587262351205  189.99551890166026 81.9761126436781  190.71582541507019 81.97611277139208  L 193.41020574712638 81.97611277139208  L 193.41020574712638 84.67049310344828  C 193.41020574712638 85.40420957854406  194.00777918263088 85.97777266922094  194.74404993614303 85.97777279693491  C 195.47046110964493 85.97791687026415  196.0634270627561 85.39676021790842  196.0778939974457 84.67049310344828  L 196.0778939974457 81.97611277139208  L 198.77240217113672 81.97611277139208  C 199.50599093231165 81.97611277139208  200.07955402298853 81.37853933588758  200.07955402298853 80.64226858237544  Z M 34.0135356321839 2.6379309067688155  L 34.0135356321839 6.613026436781638  L 37.98850357598974 6.612898722860791  C 39.10906538952747 6.612898722860791  40.016089655172436 7.501149042145585  40.016089655172436 8.613664878671784  C 40.016089655172436 9.71813473818645  39.10906538952747 10.614431034482777  37.98850357598974 10.614431034482777  L 34.01366334610475 10.614431034482777  L 34.01366334610475 14.589398978288614  C 34.01366334610475 15.7098330779055  33.12528531289911 16.616857343550464  32.01289719029376 16.616857343550464  C 30.905708638662702 16.609650410126505  30.011958392342933 15.710063613312172  30.011958392342933 14.60285160617343  L 30.012003320561917 10.61430332056193  L 26.037035504469998 10.61430332056193  C 24.93070622847631 10.61430332056193  24.01396062279281 9.71985775661949  24.009577139208204 8.613537164750937  C 24.009577139208204 7.509067305236272  24.91660140485311 6.612771008939944  26.037035504469998 6.612771008939944  L 30.011875606641127 6.612771008939944  L 30.011875606641127 2.6379309067688155  C 30.011875606641127 1.5174968071519288  30.900381353767553 0.6104725415070789  32.01276947637291 0.6104725415070789  C 33.117111621966785 0.6104725415070789  34.0135356321839 1.5174968071519288  34.0135356321839 2.6379309067688155  Z M 5.324755095174453 123.32592014894419  C 3.8572859166374087 123.32592014894419  2.6676671002829835 122.13630133258982  2.6676671002829835 120.66883215405278  C 2.6676671002829835 119.19629077474247  3.8762449553001375 117.99041455938698  5.327458237547887 118  L 21.349807151979576 118  C 22.81711226053642 117.99041455938698  24.009577139208204 119.1749610472541  24.009577139208204 120.65823052362703  C 24.009577139208204 122.13077190293734  22.801020434227325 123.32591877394634  21.349807151979576 123  L 5.327458237547887 123  C 5.326557190381266 123.3259196906115  5.325656142807304 123.32592014894419  5.324755095174453 123.32592014894419  Z M 128 35.27762097441314  L 128 104.65184572158364  L 136.07802528735635 104.65184572158364  C 139.01482783544463 104.63730125175539  141.3882775293156 102.25317987900087  141 99.31634163473814  L 141 21.952361430395854  C 141.38964687100895 18.996422860791768  139.00995351213282 16.61685721583649  136.07802528735635 17  L 72.00191149425291 17  C 69.06630693034958 16.63301124778343  66.69465778168887 19.016585056012445  66.69322720306513 21.95223371647512  L 66.69322720306513 25  L 117.36934176245211 25  C 117.37734515547392 24.62003165004012  117.3853485662678 24.620022634694124  117.39335197960008 24.620022634694124  C 123.27938101244888 24.620022634694124  128.0509503193191 29.391591941564343  128 35.27762097441314  Z M 4.001723818646212 43.29405881226057  C 4.001723818646212 45.504079386417175  5.793299476928951 47.295655044699856  8.003320051085552 47.295655044699856  C 10.213340625242154 47.295655044699856  12.004916283524892 45.504079386417175  12.004916283524892 43.29405881226057  C 12.004916283524892 41.08403823810397  10.213340625242154 39.292462579821176  8.003320051085552 39.292462579821176  C 5.793299476928951 39.292462579821176  4.001723818646212 41.08403823810397  4.001723818646212 43.29405881226057  Z M 169.40088403575987 27.287737931034485  C 169.40088403575987 29.497723202698467  171.19243107571788 31.28927024265647  173.40241634738186 31.28927024265647  C 175.61240161904584 31.28927024265647  177.40394865900385 29.497723202698467  177.40394865900385 27.287737931034485  C 177.40394865900385 25.077752659370503  175.61240161904584 23.2862056194125  173.40241634738186 23.2862056194125  C 171.19243107571788 23.2862056194125  169.40088403575987 25.077752659370503  169.40088403575987 27.287737931034485  Z M 64.02372191315055 93.98096513409962  C 64.02372191315055 101.34865684631222  69.99641614219354 107.32135107535532  77.36410785440614 107.32135107535532  C 80.90219817120408 107.32135107535532  84.29537752125907 105.91585017572595  86.79718518518519 103.41404252873565  C 89.2989928712393 100.91223485961757  90.70449379566173 97.51905548219099  90.70449379566173 93.98096513409962  C 90.70449379566173 86.61327342188702  84.73179956661875 80.64057919284403  77.36410785440614 80.64057919284403  C 73.82601753760832 80.64057919284403  70.43283818755333 82.04608009247329  67.9310305236271 84.54788773946359  C 65.42922283757309 87.04969540858178  64.02372191315055 90.44287478600825  64.02372191315055 93.98096513409962  Z M 61.349793031738386 43.29413442713428  C 59.88084262973439 43.29413442713428  58.69002304450975 42.10331484190965  58.69002304450975 40.63436443990565  C 58.689951880476094 39.16198796829224  59.882665325472324 37.960028299012265  61.35504112388253 38  L 90.70267662835249 38  C 92.17603539826484 38  93.37042867177524 39.153011792028906  93.37042867177524 40.62637056194126  C 93.37042867177524 42.099729331853496  92.17603539826484 43.29412260536401  90.70267662835249 43.29412260536401  C 90.70267662835249 43.29412260536401  90.70267662835249 43.29412260536401  90.70267662835249 44  L 61.35772311621963 44  C 61.355079762069856 43.29413048653976  61.352436397637014 43.29413442713428  61.349793031738386 43.29413442713428  Z M 61.33907688378031 57  C 59.87559938211325 56.63123778549152  58.689986803401894 55.44444696469691  58.689986803401894 53.98096874107807  C 58.689986803401894 52.50842736176776  59.87713563218392 51.29731507024269  61.33907688378031 52  L 104.060019412516 52  C 105.5219605363984 51.29731507024269  106.70906143039588 52.481733844188966  106.70906143039588 53.96500332056189  C 106.70906143039588 55.43754469987232  105.52196066411238 56.63269157088121  104.060019412516 57  L 61.33907688378031 57  Z M 61.352359131545306 70  C 59.88488995300827 70  58.69001370059448 68.78177437984402  58.69001370059448 67.31430520130698  C 58.69001370059448 65.84176382199655  59.87981762452114 64.63588378033205  61.352359131545306 65  L 80.03716002554279 65  C 81.50714712643685 64.63588390804603  82.69948429118779 65.82043039591315  82.69948429118779 67.30369974457221  C 82.69948429118779 68.77624112388253  81.50970153256708 69.97138799489142  80.03716002554279 70  L 61.352359131545306 70  Z " fill-rule="nonzero" fill="#8a96a3" stroke="none" transform="matrix(1 0 0 1 80 36 )" />
  </g>
</svg>