<?xml version="1.0" encoding="utf-8"?>
<svg version="1.1" xmlns:xlink="http://www.w3.org/1999/xlink" width="22px" height="22px" xmlns="http://www.w3.org/2000/svg">
  <g transform="matrix(1 0 0 1 -123 -2 )">
    <path d="M 21.99747 10.99747  C 21.99747 4.92382  17.07365 0  11 0  C 4.92635 0  0.00253 4.92382  0.00253 10.99747  C 0.00253 17.07101  4.9264600000000005 21.99494  11 21.99494  C 17.07365 21.99494  21.99747 17.07101  21.99747 10.99747  Z M 12.06029 10.997140000000002  L 16.655540000000002 15.591840000000001  L 15.595579999999998 16.653010000000002  L 11 12.05743  L 6.40442 16.653010000000002  L 5.34446 15.591840000000001  L 9.93971 10.997140000000002  L 5.34446 6.40189  L 6.40442 5.34193  L 11 9.93696  L 15.595579999999998 5.341930000000001  L 16.655540000000002 6.40189  L 12.06029 10.997140000000002  Z " fill-rule="nonzero" fill="#bfbfbf" stroke="none" transform="matrix(1 0 0 1 123 2 )" />
  </g>
</svg>